<svg id="SvgjsSvg1011" xmlns="http://www.w3.org/2000/svg" version="1.1" xmlns:xlink="http://www.w3.org/1999/xlink" xmlns:svgjs="http://svgjs.com/svgjs" width="299" height="44"><defs id="SvgjsDefs1012"></defs><path id="SvgjsPath1013" d="M667 128.82L707.82 128.82L707.82 88L667 88Z " fill="#ffffff" fill-opacity="1" transform="matrix(1,0,0,1,-667,-86)"></path><path id="SvgjsPath1014" d="M686.14 95L686.48 95L686.48 119.71000000000001L682.21 121.84L682.21 117.55L675 117.55 " fill="#ef4035" fill-opacity="1" transform="matrix(1,0,0,1,-667,-86)"></path><path id="SvgjsPath1015" d="M688.34 95L688 95L688 119.7L692.27 121.84L692.27 117.55L699.48 117.55 " fill="#ef4035" fill-opacity="1" transform="matrix(1,0,0,1,-667,-86)"></path><path id="SvgjsPath1016" d="M755.32 106.68C755.6800000000001 106.35000000000001 755.97 105.76 755.97 103.53C755.97 101.31 755.64 100.75 755.32 100.46000000000001C755.09 100.26 754.73 100.16000000000001 753.5100000000001 100.16000000000001L748.3400000000001 100.16000000000001L748.3400000000001 106.94000000000001L753.5100000000001 106.94000000000001C754.7300000000001 106.94000000000001 755.0900000000001 106.88000000000001 755.32 106.68ZM755.61 111.13L748.34 111.13L748.34 118.92999999999999L743 118.92999999999999L743 96L755.61 96C757.48 96 758.72 96.23 759.51 96.92C760.56 97.87 761.48 99.34 761.48 103.6C761.48 107.75999999999999 760.52 109.27 759.51 110.17999999999999C758.72 110.86999999999999 757.48 111.13 755.61 111.13Z " fill="#ffffff" fill-opacity="1" transform="matrix(1,0,0,1,-667,-86)"></path><path id="SvgjsPath1017" d="M778.04 106.29C779.15 106.29 779.48 106.15 779.68 105.99000000000001C780 105.66000000000001 780.3 105.04 780.3 103.17000000000002C780.3 101.34000000000002 780 100.72000000000001 779.68 100.42000000000002C779.4799999999999 100.26000000000002 779.15 100.16000000000001 778.04 100.16000000000001L772.3399999999999 100.16000000000001L772.3399999999999 106.29ZM777.25 110.25L772.34 110.25L772.34 118.93L767 118.93L767 96L780.5 96C782.39 96 783.57 96.26 784.36 97.05C785.3100000000001 98 785.84 99.21 785.84 102.52C785.84 106.64999999999999 784.65 107.86 782 108.32L782 108.38C784.36 108.86999999999999 785.51 109.53 785.61 112.86999999999999C785.7 115.58999999999999 785.84 117.67999999999999 785.97 118.92999999999999L780.5600000000001 118.92999999999999C780.33 117.38999999999999 780.2 115.52 780.1400000000001 113.22999999999999C780.1000000000001 111.46 779.8700000000001 111.07 779.4800000000001 110.71C779.0900000000001 110.38 778.6300000000001 110.25 777.2500000000001 110.25Z " fill="#ffffff" fill-opacity="1" transform="matrix(1,0,0,1,-667,-86)"></path><path id="SvgjsPath1018" d="M799.76 114.67L804.12 114.67C805.17 114.7 805.46 114.57000000000001 805.69 114.38C805.99 114.08 806.4100000000001 113.25999999999999 806.4100000000001 107.46C806.4100000000001 101.63 805.9900000000001 100.82 805.69 100.55C805.46 100.32 805.1700000000001 100.23 804.12 100.23L799.76 100.23C798.72 100.23 798.42 100.32000000000001 798.1899999999999 100.55C797.9 100.82 797.4699999999999 101.63 797.4699999999999 107.46C797.4699999999999 113.3 797.8999999999999 114.08 798.1899999999999 114.38C798.42 114.57 798.7199999999999 114.67 799.76 114.67ZM805.5 96C807.76 96 808.8 96.33 809.62 97.11C810.93 98.33 811.88 100.42 811.88 107.46C811.88 114.47999999999999 810.93 116.57 809.62 117.82C808.8 118.6 807.76 118.92999999999999 805.5 118.92999999999999L798.39 118.92999999999999C796.13 118.92999999999999 795.08 118.6 794.26 117.82C792.95 116.57 792 114.47999999999999 792 107.46C792 100.41999999999999 792.95 98.33 794.26 97.11C795.08 96.33 796.13 96 798.39 96Z " fill="#ffffff" fill-opacity="1" transform="matrix(1,0,0,1,-667,-86)"></path><path id="SvgjsPath1019" d="M828.32 100.26L828.32 118.93L822.98 118.93L822.98 100.26L816 100.26L816 96L835.36 96L835.36 100.26Z " fill="#ffffff" fill-opacity="1" transform="matrix(1,0,0,1,-667,-86)"></path><path id="SvgjsPath1020" d="M846.76 114.67L851.12 114.67C852.17 114.7 852.46 114.57000000000001 852.69 114.38C852.99 114.08 853.4100000000001 113.25999999999999 853.4100000000001 107.46C853.4100000000001 101.63 852.9900000000001 100.82 852.69 100.55C852.46 100.32 852.1700000000001 100.23 851.12 100.23L846.76 100.23C845.72 100.23 845.42 100.32000000000001 845.1899999999999 100.55C844.9 100.82 844.4699999999999 101.63 844.4699999999999 107.46C844.4699999999999 113.3 844.8999999999999 114.08 845.1899999999999 114.38C845.42 114.57 845.7199999999999 114.67 846.76 114.67ZM852.5 96C854.76 96 855.8 96.33 856.62 97.11C857.93 98.33 858.88 100.42 858.88 107.46C858.88 114.47999999999999 857.93 116.57 856.62 117.82C855.8 118.6 854.76 118.92999999999999 852.5 118.92999999999999L845.39 118.92999999999999C843.13 118.92999999999999 842.08 118.6 841.26 117.82C839.95 116.57 839 114.47999999999999 839 107.46C839 100.41999999999999 839.95 98.33 841.26 97.11C842.08 96.33 843.13 96 845.39 96Z " fill="#ffffff" fill-opacity="1" transform="matrix(1,0,0,1,-667,-86)"></path><path id="SvgjsPath1021" d="M876.31 100.26L876.31 118.93L870.9799999999999 118.93L870.9799999999999 100.26L863.9999999999999 100.26L863.9999999999999 96L883.3599999999999 96L883.3599999999999 100.26Z " fill="#ffffff" fill-opacity="1" transform="matrix(1,0,0,1,-667,-86)"></path><path id="SvgjsPath1022" d="M898.37 110.51L898.37 118.93L893.19 118.93L893.19 110.54L885 96L890.7 96L895.7800000000001 105.47L895.9700000000001 105.47L901.0500000000002 96L906.4900000000002 96Z " fill="#ffffff" fill-opacity="1" transform="matrix(1,0,0,1,-667,-86)"></path><path id="SvgjsPath1023" d="M921.51 106.94C922.73 106.94 923.09 106.88 923.3199999999999 106.67999999999999C923.68 106.35 923.9699999999999 105.75999999999999 923.9699999999999 103.52999999999999C923.9699999999999 101.30999999999999 923.6399999999999 100.74999999999999 923.3199999999999 100.46C923.0899999999999 100.25999999999999 922.7299999999999 100.16 921.51 100.16L916.34 100.16L916.34 106.94ZM923.61 111.13L916.34 111.13L916.34 118.92999999999999L911 118.92999999999999L911 96L923.61 96C925.48 96 926.72 96.23 927.51 96.92C928.56 97.87 929.47 99.34 929.47 103.6C929.47 107.75999999999999 928.52 109.27 927.51 110.17999999999999C926.72 110.86999999999999 925.48 111.13 923.61 111.13Z " fill="#ffffff" fill-opacity="1" transform="matrix(1,0,0,1,-667,-86)"></path><path id="SvgjsPath1024" d="M952.2 118.93L935 118.93L935 96L952.2 96L952.2 100.23L940.34 100.23L940.34 105.14L949.58 105.14L949.58 109.17L940.34 109.17L940.34 114.7L952.2 114.7Z " fill="#ffffff" fill-opacity="1" transform="matrix(1,0,0,1,-667,-86)"></path><path id="SvgjsPath1025" d="M960.95 118.96L960.95 100.88L957.3100000000001 102.11999999999999L956.0000000000001 98.25999999999999L962.0600000000001 95.99999999999999L966.2500000000001 95.99999999999999L966.2500000000001 118.95999999999998Z " fill="#ffffff" fill-opacity="1" transform="matrix(1,0,0,1,-667,-86)"></path><path id="SvgjsPath1026" d="M726 129.95L727.03 129.95L727.03 85.99999999999999L726 85.99999999999999Z " fill="#ffffff" fill-opacity="1" transform="matrix(1,0,0,1,-667,-86)"></path></svg>